<svg width="36" height="36" viewBox="0 0 36 36" fill="none" xmlns="http://www.w3.org/2000/svg">
<path d="M36 18C36 27.9411 27.9411 36 18 36C8.05887 36 0 27.9411 0 18C0 8.05887 8.05887 0 18 0C27.9411 0 36 8.05887 36 18ZM6.02991 18C6.02991 24.6109 11.3891 29.9701 18 29.9701C24.6109 29.9701 29.9701 24.6109 29.9701 18C29.9701 11.3891 24.6109 6.02991 18 6.02991C11.3891 6.02991 6.02991 11.3891 6.02991 18Z" fill="#F4F5F7"/>
<path d="M32.985 18C34.6502 18 36.0257 19.3591 35.7481 21.001C35.2767 23.7885 34.1527 26.4406 32.4501 28.7328C30.145 31.8364 26.9018 34.1153 23.2007 35.2323C19.4996 36.3493 15.5372 36.245 11.9 34.9349C8.26277 33.6247 5.144 31.1784 3.00528 27.9578C0.866565 24.7373 -0.178444 20.9138 0.0249216 17.0531C0.228287 13.1925 1.66922 9.49991 4.13445 6.52191C6.59969 3.5439 9.95822 1.43873 13.713 0.517972C16.4861 -0.16208 19.3666 -0.169347 22.1187 0.47753C23.7397 0.858526 24.4588 2.6536 23.8129 4.18833C23.167 5.72306 21.3945 6.40113 19.7472 6.1581C18.2242 5.93341 16.6626 6.00321 15.1491 6.37436C12.6522 6.98667 10.4187 8.38662 8.77934 10.367C7.13995 12.3474 6.18172 14.803 6.04648 17.3703C5.91124 19.9377 6.60618 22.4803 8.02843 24.622C9.45069 26.7637 11.5247 28.3905 13.9435 29.2618C16.3622 30.133 18.9973 30.2024 21.4585 29.4596C23.9198 28.7168 26.0765 27.2013 27.6094 25.1374C28.5386 23.8864 29.2087 22.4741 29.5924 20.9832C30.0074 19.3707 31.3199 18 32.985 18Z" fill="#B1CBFC"/>
</svg>
