<svg width="36" height="40" viewBox="0 0 36 40" fill="currentColor" xmlns="http://www.w3.org/2000/svg">
<path d="M2.15755 10.2656C1.82441 10.0721 1.82613 9.59036 2.16064 9.3992L17.3519 0.717666C17.5056 0.629814 17.6944 0.629814 17.8481 0.717665L33.1484 9.46148C33.486 9.65444 33.4838 10.1421 33.1444 10.3319L26.3968 14.107L18.3443 9.50519C17.8831 9.24164 17.3169 9.24164 16.8557 9.50519L9.03631 13.9738C8.88148 14.0623 8.69124 14.0617 8.53705 13.9721L2.15755 10.2656ZM26.4963 26.0684C26.9636 25.8013 27.252 25.3043 27.252 24.766V15.9919C27.252 15.8109 27.3499 15.644 27.5079 15.5556L33.9559 11.9481C34.2892 11.7616 34.7 12.0025 34.7 12.3844V29.5939C34.7 29.7733 34.6039 29.939 34.4481 30.028L19.2545 38.7109C18.9212 38.9013 18.5065 38.6607 18.5065 38.2767V30.9246C18.5065 30.7451 18.6026 30.5795 18.7584 30.4904L26.4963 26.0684ZM16.4416 30.4904C16.5974 30.5795 16.6935 30.7451 16.6935 30.9246V38.2767C16.6935 38.6607 16.2788 38.9013 15.9455 38.7109L0.751914 30.028C0.596135 29.939 0.5 29.7733 0.5 29.5939V12.2609C0.5 11.8754 0.917847 11.6349 1.25118 11.8286L7.69918 15.5748C7.85321 15.6643 7.948 15.829 7.948 16.0071V24.766C7.948 25.3043 8.2364 25.8013 8.70374 26.0684L16.4416 30.4904Z" />
</svg>
