<svg width="24" height="24" viewBox="0 0 24 24" fill="currentColor" xmlns="http://www.w3.org/2000/svg">
<g clip-path="url(#clip0_1_64570)">
<g clip-path="url(#clip1_1_64570)">
<path d="M12.2201 19.85C12.0401 20.03 11.7201 20.06 11.5101 19.85C11.3301 19.67 11.3001 19.35 11.5101 19.14L14.9001 15.75L13.4901 14.34L10.1001 17.73C9.91009 17.93 9.59009 17.92 9.39009 17.73C9.18009 17.52 9.21009 17.2 9.39009 17.02L12.7801 13.63L11.3701 12.22L7.98009 15.61C7.80009 15.79 7.48009 15.82 7.27009 15.61C7.08009 15.42 7.08009 15.1 7.27009 14.9L10.6601 11.51L9.24009 10.1L5.85009 13.49C5.67009 13.67 5.35009 13.7 5.14009 13.49C4.95009 13.29 4.95009 12.98 5.14009 12.78L9.52009 8.4L11.3901 10.26C12.3401 11.21 13.9801 11.2 14.9301 10.26C15.9101 9.28 15.9101 7.7 14.9301 6.72L13.0701 4.86L13.3501 4.58C14.1301 3.8 15.4001 3.8 16.1801 4.58L20.4201 8.82C21.2001 9.6 21.2001 10.87 20.4201 11.65L12.2201 19.85ZM21.8301 13.07C23.3901 11.51 23.3901 8.98 21.8301 7.41L17.5901 3.17C16.0301 1.61 13.5001 1.61 11.9301 3.17L11.6501 3.45L11.3701 3.17C9.81009 1.61 7.28009 1.61 5.71009 3.17L2.17009 6.71C0.750092 8.13 0.620092 10.34 1.77009 11.9L3.22009 10.45C2.83009 9.7 2.96009 8.75 3.59009 8.12L7.13009 4.58C7.91009 3.8 9.18009 3.8 9.96009 4.58L13.5201 8.14C13.7001 8.32 13.7301 8.64 13.5201 8.85C13.3101 9.06 12.9901 9.03 12.8101 8.85L9.52009 5.57L3.72009 11.36C2.74009 12.33 2.74009 13.92 3.72009 14.9C4.11009 15.29 4.61009 15.53 5.14009 15.6C5.21009 16.12 5.44009 16.62 5.84009 17.02C6.24009 17.42 6.74009 17.65 7.26009 17.72C7.33009 18.24 7.56009 18.74 7.96009 19.14C8.36009 19.54 8.86009 19.77 9.38009 19.84C9.45009 20.38 9.69009 20.87 10.0801 21.26C10.5501 21.73 11.1801 21.99 11.8501 21.99C12.5201 21.99 13.1501 21.73 13.6201 21.26L21.8301 13.07Z" />
</g>
</g>
<defs>
<clipPath id="clip0_1_64570">
<rect width="24" height="24" />
</clipPath>
<clipPath id="clip1_1_64570">
<rect width="24" height="24" />
</clipPath>
</defs>
</svg>
