<svg width="16" height="16" viewBox="0 0 16 16" fill="currentColor" xmlns="http://www.w3.org/2000/svg">
  <path d="M7.99935 8.00065C8.36602 8.00065 8.68002 7.86998 8.94135 7.60865C9.20224 7.34776 9.33268 7.03398 9.33268 6.66732C9.33268 6.30065 9.20224 5.98665 8.94135 5.72532C8.68002 5.46443 8.36602 5.33398 7.99935 5.33398C7.63268 5.33398 7.3189 5.46443 7.05802 5.72532C6.79668 5.98665 6.66602 6.30065 6.66602 6.66732C6.66602 7.03398 6.79668 7.34776 7.05802 7.60865C7.3189 7.86998 7.63268 8.00065 7.99935 8.00065ZM7.99935 12.9007C9.3549 11.6562 10.3605 10.5255 11.016 9.50865C11.6716 8.49221 11.9993 7.58954 11.9993 6.80065C11.9993 5.58954 11.6131 4.59776 10.8407 3.82532C10.0687 3.05332 9.12157 2.66732 7.99935 2.66732C6.87713 2.66732 5.92979 3.05332 5.15735 3.82532C4.38535 4.59776 3.99935 5.58954 3.99935 6.80065C3.99935 7.58954 4.32713 8.49221 4.98268 9.50865C5.63824 10.5255 6.64379 11.6562 7.99935 12.9007ZM7.99935 14.6673C6.21046 13.1451 4.87446 11.7311 3.99135 10.4253C3.10779 9.11998 2.66602 7.91176 2.66602 6.80065C2.66602 5.13398 3.20224 3.80621 4.27468 2.81732C5.34668 1.82843 6.58824 1.33398 7.99935 1.33398C9.41046 1.33398 10.652 1.82843 11.724 2.81732C12.7965 3.80621 13.3327 5.13398 13.3327 6.80065C13.3327 7.91176 12.8911 9.11998 12.008 10.4253C11.1245 11.7311 9.78824 13.1451 7.99935 14.6673Z" />
</svg>
