<svg width="16" height="16" viewBox="0 0 16 16" fill="currentColor" xmlns="http://www.w3.org/2000/svg">
  <path d="M6.66732 6.66732C5.93398 6.66732 5.30621 6.40621 4.78398 5.88398C4.26176 5.36176 4.00065 4.73398 4.00065 4.00065C4.00065 3.26732 4.26176 2.63954 4.78398 2.11732C5.30621 1.5951 5.93398 1.33398 6.66732 1.33398C7.40065 1.33398 8.02843 1.5951 8.55065 2.11732C9.07287 2.63954 9.33398 3.26732 9.33398 4.00065C9.33398 4.73398 9.07287 5.36176 8.55065 5.88398C8.02843 6.40621 7.40065 6.66732 6.66732 6.66732ZM6.66732 5.33398C7.03398 5.33398 7.34798 5.20332 7.60932 4.94198C7.87021 4.6811 8.00065 4.36732 8.00065 4.00065C8.00065 3.63398 7.87021 3.32021 7.60932 3.05932C7.34798 2.79798 7.03398 2.66732 6.66732 2.66732C6.30065 2.66732 5.98687 2.79798 5.72598 3.05932C5.46465 3.32021 5.33398 3.63398 5.33398 4.00065C5.33398 4.36732 5.46465 4.6811 5.72598 4.94198C5.98687 5.20332 6.30065 5.33398 6.66732 5.33398ZM14.0673 14.334L11.934 12.2007C11.7007 12.334 11.4507 12.4451 11.184 12.534C10.9173 12.6229 10.634 12.6673 10.334 12.6673C9.50065 12.6673 8.79221 12.3758 8.20865 11.7927C7.62554 11.2091 7.33398 10.5007 7.33398 9.66732C7.33398 8.83398 7.62554 8.12554 8.20865 7.54198C8.79221 6.95887 9.50065 6.66732 10.334 6.66732C11.1673 6.66732 11.8758 6.95887 12.4593 7.54198C13.0424 8.12554 13.334 8.83398 13.334 9.66732C13.334 9.96732 13.2895 10.2507 13.2007 10.5173C13.1118 10.784 13.0007 11.034 12.8673 11.2673L15.0007 13.4007L14.0673 14.334ZM10.334 11.334C10.8007 11.334 11.1951 11.1729 11.5173 10.8507C11.8395 10.5284 12.0007 10.134 12.0007 9.66732C12.0007 9.20065 11.8395 8.80621 11.5173 8.48398C11.1951 8.16176 10.8007 8.00065 10.334 8.00065C9.86732 8.00065 9.47287 8.16176 9.15065 8.48398C8.82843 8.80621 8.66732 9.20065 8.66732 9.66732C8.66732 10.134 8.82843 10.5284 9.15065 10.8507C9.47287 11.1729 9.86732 11.334 10.334 11.334ZM1.33398 12.0007V10.1507C1.33398 9.77287 1.42843 9.42287 1.61732 9.10065C1.80621 8.77843 2.06732 8.53398 2.40065 8.36732C2.96732 8.07843 3.60621 7.83398 4.31732 7.63398C5.02843 7.43398 5.81732 7.33398 6.68398 7.33398C6.55065 7.53398 6.43687 7.74776 6.34265 7.97532C6.24798 8.20332 6.17287 8.43954 6.11732 8.68398C5.45065 8.73954 4.85621 8.85332 4.33398 9.02532C3.81176 9.19776 3.37287 9.37843 3.01732 9.56732C2.90621 9.62287 2.82021 9.70332 2.75932 9.80865C2.69798 9.91443 2.66732 10.0284 2.66732 10.1507V10.6673H6.11732C6.17287 10.9118 6.24798 11.1451 6.34265 11.3673C6.43687 11.5895 6.55065 11.8007 6.68398 12.0007H1.33398Z" />
</svg>
